<?xml version="1.0" encoding="UTF-8" standalone="no"?>
<!-- Created with Inkscape (http://www.inkscape.org/) -->

<svg
   width="1000"
   height="1000"
   viewBox="0 0 264.58333 264.58334"
   version="1.1"
   id="svg5"
   inkscape:version="1.1.2 (0a00cf5339, 2022-02-04)"
   sodipodi:docname="fjäril.svg"
   xmlns:inkscape="http://www.inkscape.org/namespaces/inkscape"
   xmlns:sodipodi="http://sodipodi.sourceforge.net/DTD/sodipodi-0.dtd"
   xmlns="http://www.w3.org/2000/svg"
   xmlns:svg="http://www.w3.org/2000/svg">
  <sodipodi:namedview
     id="namedview7"
     pagecolor="#ffffff"
     bordercolor="#666666"
     borderopacity="1.0"
     inkscape:pageshadow="2"
     inkscape:pageopacity="0.0"
     inkscape:pagecheckerboard="0"
     inkscape:document-units="mm"
     showgrid="false"
     units="px"
     width="1000px"
     inkscape:zoom="0.27401876"
     inkscape:cx="200.71619"
     inkscape:cy="87.585245"
     inkscape:window-width="2520"
     inkscape:window-height="1048"
     inkscape:window-x="0"
     inkscape:window-y="0"
     inkscape:window-maximized="1"
     inkscape:current-layer="layer1" />
  <defs
     id="defs2" />
  <g
     inkscape:label="Layer 1"
     inkscape:groupmode="layer"
     id="layer1">
    <path
       style="fill:#916f6f;stroke:#000000;stroke-width:0.264583px;stroke-linecap:butt;stroke-linejoin:miter;stroke-opacity:1;fill-opacity:1"
       d="M 179.72108,200.45668 C 179.00986,198.93994 116.96509,93.839962 116.96509,93.839962"
       id="path857"
       sodipodi:nodetypes="cc" />
    <path
       style="fill:#de87cd;stroke:none;stroke-width:0.264583px;stroke-linecap:butt;stroke-linejoin:miter;stroke-opacity:1;fill-opacity:1"
       d="m 104.99924,93.318672 c 0,0 -50.829045,-8.490134 -70.580271,8.413208 -18.374452,17.6127 -28.9500583,68.02297 -20.346157,82.14526 12.402707,20.35759 128.611998,-20.85741 130.865238,-18.45749 1.02542,1.09218 -33.11851,13.46758 -42.76369,31.39691 -11.548977,21.46829 -7.630884,39.92321 6.21544,48.55779 19.63697,12.24564 56.21066,-3.18612 65.7189,-22.38576 5.05261,-10.20254 -9.72982,-32.7139 -9.72982,-32.7139 z"
       id="path859"
       sodipodi:nodetypes="ccssssscc" />
    <path
       style="fill:#37c8ab;stroke:none;stroke-width:0.264583px;stroke-linecap:butt;stroke-linejoin:miter;stroke-opacity:1;fill-opacity:1"
       d="m 122.25423,83.560169 c 0,0 11.19175,-49.668889 31.07954,-60.641874 23.00011,-12.690193 60.01363,-20.0710585 78.49549,6.990961 18.48186,27.062019 -65.35602,125.357714 -65.35602,125.357714 0,0 28.59199,-24.3664 47.58832,-22.90409 15.38637,1.18442 35.80108,11.96908 37.37484,27.32052 2.26584,22.10244 -22.57283,47.54595 -44.71065,49.43505 -12.72909,1.08622 -27.94486,-27.95769 -27.94486,-27.95769 z"
       id="path861"
       sodipodi:nodetypes="cszcssscc" />
    <path
       style="fill:none;stroke:#916f6f;stroke-width:1.32291667;stroke-linecap:butt;stroke-linejoin:miter;stroke-opacity:1;stroke-miterlimit:4;stroke-dasharray:none"
       d="M 97.4281,79.281383 40.302408,48.93408"
       id="path863" />
    <path
       style="fill:none;stroke:#916f6f;stroke-width:1.32291667;stroke-linecap:butt;stroke-linejoin:miter;stroke-opacity:1;stroke-miterlimit:4;stroke-dasharray:none;fill-opacity:1"
       d="M 110.24464,70.544666 99.275473,15.506838"
       id="path865"
       sodipodi:nodetypes="cc" />
    <path
       style="fill:#916f6f;stroke:#000000;stroke-width:0.264583px;stroke-linecap:butt;stroke-linejoin:miter;stroke-opacity:1;fill-opacity:1"
       d="m 169.14707,192.43512 10.57401,8.02156 -3.14805,-14.99623"
       id="path2264" />
    <path
       style="fill:#916f6f;fill-opacity:1;stroke:none;stroke-width:0.264583px;stroke-linecap:butt;stroke-linejoin:miter;stroke-opacity:1"
       d="m 116.96509,93.83996 -11.96585,-0.52129 59.37964,96.95602 15.3422,10.18199 z"
       id="path3079"
       sodipodi:nodetypes="ccccc" />
    <path
       style="fill:#6c5353;stroke:none;stroke-width:0.264583px;stroke-linecap:butt;stroke-linejoin:miter;stroke-opacity:1"
       d="m 122.25423,83.560168 -5.28914,10.279792 62.75599,106.61672 -0.94019,-19.29592 z"
       id="path3081"
       sodipodi:nodetypes="ccccc" />
    <path
       style="fill:#916f6f;stroke:none;stroke-width:0.264583;stroke-linecap:round;stroke-miterlimit:4;stroke-dasharray:none;stroke-opacity:1"
       id="path895"
       sodipodi:type="arc"
       sodipodi:cx="110.54034"
       sodipodi:cy="84.849953"
       sodipodi:rx="14.644264"
       sodipodi:ry="14.308208"
       sodipodi:start="4.712389"
       sodipodi:end="4.6921955"
       sodipodi:open="true"
       sodipodi:arc-type="arc"
       d="M 110.54034,70.541744 A 14.644264,14.308208 0 0 1 125.18441,84.77772 14.644264,14.308208 0 0 1 110.68819,99.157432 14.644264,14.308208 0 0 1 95.897752,85.066644 14.644264,14.308208 0 0 1 110.24464,70.544661" />
  </g>
</svg>
