<?xml version="1.0" encoding="UTF-8" standalone="no"?>
<svg
   viewBox="0 0 1080 1080"
   version="1.1"
   id="svg23"
   xmlns="http://www.w3.org/2000/svg"
   xmlns:svg="http://www.w3.org/2000/svg">
  <!-- Definitions -->
  <defs
     id="defs11">
    <!-- Background gradient -->
    <linearGradient
       id="bg-gradient"
       x1="0%"
       y1="0%"
       x2="100%"
       y2="100%">
      <stop
         offset="0%"
         stop-color="#f9f7f7"
         id="stop1" />
      <stop
         offset="100%"
         stop-color="#f0f0f2"
         id="stop2" />
    </linearGradient>
    <!-- Background decorative element gradients -->
    <linearGradient
       id="accent1-gradient"
       x1="0%"
       y1="0%"
       x2="100%"
       y2="100%">
      <stop
         offset="0%"
         stop-color="#de87cd"
         stop-opacity="0.2"
         id="stop3" />
      <stop
         offset="100%"
         stop-color="#de87cd"
         stop-opacity="0.05"
         id="stop4" />
    </linearGradient>
    <linearGradient
       id="accent2-gradient"
       x1="680"
       y1="680"
       x2="1280"
       y2="1280"
       gradientUnits="userSpaceOnUse"
       gradientTransform="translate(-5.106383,-5.106383)">
      <stop
         offset="0%"
         stop-color="#37c8ab"
         stop-opacity="0.2"
         id="stop5" />
      <stop
         offset="100%"
         stop-color="#37c8ab"
         stop-opacity="0.05"
         id="stop6" />
    </linearGradient>
    <linearGradient
       id="accent3-gradient"
       x1="0%"
       y1="0%"
       x2="100%"
       y2="100%">
      <stop
         offset="0%"
         stop-color="#916f6f"
         stop-opacity="0.15"
         id="stop7" />
      <stop
         offset="100%"
         stop-color="#916f6f"
         stop-opacity="0.05"
         id="stop8" />
    </linearGradient>
    <!-- Button gradient -->
    <linearGradient
       id="button-gradient"
       x1="0%"
       y1="0%"
       x2="100%"
       y2="100%">
      <stop
         offset="0%"
         stop-color="#de87cd"
         id="stop9" />
      <stop
         offset="100%"
         stop-color="#c76ab0"
         id="stop10" />
    </linearGradient>
    <!-- Filter for soft shadow -->
    <filter
       id="soft-shadow"
       x="-0.045"
       y="-0.045"
       width="1.09"
       height="1.1025">
      <feGaussianBlur
         in="SourceAlpha"
         stdDeviation="15"
         id="feGaussianBlur10" />
      <feOffset
         dx="0"
         dy="10"
         result="offsetblur"
         id="feOffset10" />
      <feComponentTransfer
         id="feComponentTransfer10">
        <feFuncA
           type="linear"
           slope="0.15"
           id="feFuncA10" />
      </feComponentTransfer>
      <feMerge
         id="feMerge11">
        <feMergeNode
           id="feMergeNode10" />
        <feMergeNode
           in="SourceGraphic"
           id="feMergeNode11" />
      </feMerge>
    </filter>
    <!-- Button shadow -->
    <filter
       id="button-shadow"
       x="-0.1"
       y="-0.25"
       width="1.2"
       height="1.6">
      <feGaussianBlur
         in="SourceAlpha"
         stdDeviation="4"
         id="feGaussianBlur11" />
      <feOffset
         dx="0"
         dy="4"
         result="offsetblur"
         id="feOffset11" />
      <feComponentTransfer
         id="feComponentTransfer11">
        <feFuncA
           type="linear"
           slope="0.3"
           id="feFuncA11" />
      </feComponentTransfer>
      <feMerge
         id="feMerge12">
        <feMergeNode
           id="feMergeNode12" />
        <feMergeNode
           in="SourceGraphic"
           id="feMergeNode13" />
      </feMerge>
    </filter>
  </defs>
  <!-- Background -->
  <rect
     width="1080"
     height="1080"
     fill="url(#bg-gradient)"
     id="rect11" />
  <circle
     cx="974.89362"
     cy="974.89362"
     r="300"
     fill="url(#accent2-gradient)"
     opacity="0.5"
     id="circle12"
     style="fill:url(#accent2-gradient)" />
  <!-- Decorative background elements -->
  <circle
     cx="100"
     cy="100"
     r="250"
     fill="url(#accent1-gradient)"
     opacity="0.5"
     id="circle11" />
  <circle
     cx="850"
     cy="200"
     r="150"
     fill="url(#accent3-gradient)"
     opacity="0.5"
     id="circle13" />
  <!-- Main container -->
  <rect
     x="140"
     y="140"
     width="800"
     height="800"
     rx="30"
     fill="white"
     filter="url(#soft-shadow)"
     id="rect13" />
  
  <!-- Butterfly Logo -->
  <g
     id="butterfly-logo"
     transform="matrix(0.38038465,0,0,0.38038465,540,300)">
    <path
       style="fill:#916f6f;fill-opacity:1;stroke:#000000;stroke-width:0.240799px;stroke-linecap:butt;stroke-linejoin:miter;stroke-opacity:1"
       d="m 186.02665,214.41177 c -0.6473,-1.38039 -57.11486,-97.03295 -57.11486,-97.03295"
       id="path857" />
    <path
       style="fill:#de87cd;fill-opacity:1;stroke:none;stroke-width:0.240799px;stroke-linecap:butt;stroke-linejoin:miter;stroke-opacity:1"
       d="m 124.91213,129.67987 c 0,0 -99.930879,-29.0738 -117.9066682,-13.68989 -4.7639298,4.56643 11.1116632,13.10254 19.9268132,23.79409 9.787402,11.87074 22.550028,13.73946 30.511727,22.59599 9.340043,10.38979 16.854238,23.1014 24.120002,29.22825 16.585672,13.98587 60.952926,-25.58086 63.003626,-23.39668 0.93324,0.994 -21.98985,26.38055 -32.65033,41.53564 -17.690553,25.14914 -12.052414,33.75789 9.19003,45.54453 18.41695,10.21888 51.15788,-2.89972 59.81143,-20.3735 4.59844,-9.28544 -8.85521,-29.77325 -8.85521,-29.77325 z"
       id="path859" />
    <path
       style="fill:#37c8ab;fill-opacity:1;stroke:none;stroke-width:0.240799px;stroke-linecap:butt;stroke-linejoin:miter;stroke-opacity:1"
       d="m 140.61606,120.79857 c 0,0 23.22854,-98.652745 41.32862,-108.639375 6.87673,-3.7942009 13.22778,12.57948 17.41155,29.749287 3.13973,12.885242 -0.68393,26.698277 2.6072,39.235924 3.13509,11.943181 5.39564,26.131544 9.60557,34.918844 9.90706,20.67874 -46.39347,40.73378 -46.39347,40.73378 0,0 34.46532,-5.82285 51.77412,-6.86088 22.48158,-1.34824 28.81837,-2.76661 34.34583,27.36745 3.64826,19.88925 -20.54376,43.27205 -40.69161,44.99134 -11.58488,0.98858 -25.4329,-25.44458 -25.4329,-25.44458 z"
       id="path861" />
    <path
       style="fill:none;stroke:#916f6f;stroke-width:2.408;stroke-linecap:round;stroke-linejoin:miter;stroke-miterlimit:4;stroke-dasharray:none;stroke-opacity:1"
       d="M 118.02155,116.9044 66.030886,89.285014"
       id="path863" />
    <path
       style="fill:none;fill-opacity:1;stroke:#916f6f;stroke-width:2.408;stroke-linecap:round;stroke-linejoin:miter;stroke-miterlimit:4;stroke-dasharray:none;stroke-opacity:1"
       d="M 129.68602,108.95303 119.70286,58.862544"
       id="path865" />
    <path
       style="fill:#916f6f;fill-opacity:1;stroke:#000000;stroke-width:0.240799px;stroke-linecap:butt;stroke-linejoin:miter;stroke-opacity:1"
       d="m 176.40313,207.11128 9.62352,7.30049 -2.86508,-13.64822"
       id="path2264" />
    <path
       style="fill:#916f6f;fill-opacity:1;stroke:none;stroke-width:0.240799px;stroke-linecap:butt;stroke-linejoin:miter;stroke-opacity:1"
       d="m 135.80237,130.15431 -10.89024,-0.47444 47.15142,75.46518 13.9631,9.26672 c -14.24817,-24.96933 -13.45029,-24.59059 -50.22428,-84.25746 z"
       id="path3079" />
    <path
       style="fill:#6c5353;stroke:none;stroke-width:0.240799px;stroke-linecap:butt;stroke-linejoin:miter;stroke-opacity:1"
       d="m 140.61606,120.79857 -4.81369,9.35574 50.22428,84.25746 -0.85568,-17.56141 z"
       id="path3081" />
    <path
       style="fill:#916f6f;stroke:none;stroke-width:0.264583;stroke-linecap:round;stroke-miterlimit:4;stroke-dasharray:none;stroke-opacity:1"
       id="path895"
       d="m 129.95512,108.95037 a 13.327892,13.022045 0 0 1 13.32773,12.9563 13.327892,13.022045 0 0 1 -13.19316,13.08712 13.327892,13.022045 0 0 1 -13.46093,-12.82417 13.327892,13.022045 0 0 1 13.05725,-13.2166" />
  </g>
  
  <!-- Text Content -->
  <text
    x="540"
    y="455"
    font-family="Arial, sans-serif"
    font-size="54"
    font-weight="bold"
    text-anchor="middle"
    fill="#4a3e3e">
    <tspan x="540" y="455">BLI MEDLEM</tspan>
  </text>
  
  <text
    x="540"
    y="520"
    font-family="Georgia, serif"
    font-size="32"
    text-anchor="middle"
    fill="#6c5353"
    style="font-style:italic">
    <tspan x="540" y="520">Var med och forma framtiden</tspan>
  </text>
  
  <!-- Benefits list -->
  <text
    x="340"
    y="580"
    font-family="Arial, sans-serif"
    font-size="24"
    fill="#4a3e3e">
    <tspan x="340" y="580">✦ Bidra till ett systemiskt nytänkande</tspan>
    <tspan x="340" y="620">✦ Delta i spännande pilotprojekt</tspan>
    <tspan x="340" y="660">✦ Forma ett parti som vågar tänka längre</tspan>
    <tspan x="340" y="700">✦ Skapa ett samhälle där alla kan blomstra</tspan>
  </text>
  
  <!-- CTA Button -->
  <g id="cta-button">
    <rect
      x="340"
      y="740"
      width="400"
      height="70"
      rx="35"
      fill="url(#button-gradient)"
      filter="url(#button-shadow)"
      id="button-bg" />
    <text
      x="540"
      y="785"
      font-family="Arial, sans-serif"
      font-size="28"
      font-weight="bold"
      text-anchor="middle"
      fill="white"
      id="button-text">
      Gå med i Fjärilspartiet →
    </text>
  </g>
  
  <!-- Divider line -->
  <line
     x1="340"
     y1="840"
     x2="740"
     y2="840"
     stroke="#e0e0e2"
     stroke-width="2"
     id="line14" />
  
  <!-- Website -->
  <text
     x="540"
     y="880"
     font-family="Arial, sans-serif"
     font-size="20"
     text-anchor="middle"
     fill="#6c5353"
     id="text23">fjarilspartiet.se</text>
</svg>
