<?xml version="1.0" encoding="UTF-8" standalone="no"?>
<svg
   viewBox="0 0 800 800"
   version="1.1"
   id="svg161"
   sodipodi:docname="fjp-contrast-poster2.svg"
   inkscape:version="1.4.2 (ebf0e940d0, 2025-05-08)"
   xmlns:inkscape="http://www.inkscape.org/namespaces/inkscape"
   xmlns:sodipodi="http://sodipodi.sourceforge.net/DTD/sodipodi-0.dtd"
   xmlns="http://www.w3.org/2000/svg"
   xmlns:svg="http://www.w3.org/2000/svg">
  <sodipodi:namedview
     id="namedview161"
     pagecolor="#ffffff"
     bordercolor="#000000"
     borderopacity="0.25"
     inkscape:showpageshadow="2"
     inkscape:pageopacity="0.0"
     inkscape:pagecheckerboard="0"
     inkscape:deskcolor="#d1d1d1"
     inkscape:zoom="1.0575"
     inkscape:cx="399.52719"
     inkscape:cy="400"
     inkscape:window-width="2520"
     inkscape:window-height="1048"
     inkscape:window-x="0"
     inkscape:window-y="0"
     inkscape:window-maximized="1"
     inkscape:current-layer="svg161" />
  <!-- Definitions for patterns and gradients -->
  <defs
     id="defs33">
    <!-- Upper half cityscape pattern -->
    <pattern
       id="city-pattern"
       width="200"
       height="100"
       patternUnits="userSpaceOnUse">
      <rect
         x="10"
         y="20"
         width="30"
         height="80"
         fill="#555"
         id="rect1" />
      <rect
         x="50"
         y="40"
         width="20"
         height="60"
         fill="#444"
         id="rect2" />
      <rect
         x="80"
         y="10"
         width="40"
         height="90"
         fill="#666"
         id="rect3" />
      <rect
         x="130"
         y="30"
         width="25"
         height="70"
         fill="#4a4a4a"
         id="rect4" />
      <rect
         x="165"
         y="50"
         width="15"
         height="50"
         fill="#5a5a5a"
         id="rect5" />
      <!-- Windows -->
      <rect
         x="15"
         y="30"
         width="5"
         height="5"
         fill="#777"
         id="rect6" />
      <rect
         x="15"
         y="45"
         width="5"
         height="5"
         fill="#777"
         id="rect7" />
      <rect
         x="15"
         y="60"
         width="5"
         height="5"
         fill="#777"
         id="rect8" />
      <rect
         x="15"
         y="75"
         width="5"
         height="5"
         fill="#777"
         id="rect9" />
      <rect
         x="25"
         y="30"
         width="5"
         height="5"
         fill="#777"
         id="rect10" />
      <rect
         x="25"
         y="45"
         width="5"
         height="5"
         fill="#777"
         id="rect11" />
      <rect
         x="25"
         y="60"
         width="5"
         height="5"
         fill="#777"
         id="rect12" />
      <rect
         x="25"
         y="75"
         width="5"
         height="5"
         fill="#777"
         id="rect13" />
      <rect
         x="55"
         y="45"
         width="4"
         height="4"
         fill="#777"
         id="rect14" />
      <rect
         x="55"
         y="55"
         width="4"
         height="4"
         fill="#777"
         id="rect15" />
      <rect
         x="55"
         y="65"
         width="4"
         height="4"
         fill="#777"
         id="rect16" />
      <rect
         x="55"
         y="75"
         width="4"
         height="4"
         fill="#777"
         id="rect17" />
      <rect
         x="62"
         y="45"
         width="4"
         height="4"
         fill="#777"
         id="rect18" />
      <rect
         x="62"
         y="55"
         width="4"
         height="4"
         fill="#777"
         id="rect19" />
      <rect
         x="62"
         y="65"
         width="4"
         height="4"
         fill="#777"
         id="rect20" />
      <rect
         x="62"
         y="75"
         width="4"
         height="4"
         fill="#777"
         id="rect21" />
      <rect
         x="90"
         y="20"
         width="6"
         height="6"
         fill="#777"
         id="rect22" />
      <rect
         x="90"
         y="35"
         width="6"
         height="6"
         fill="#777"
         id="rect23" />
      <rect
         x="90"
         y="50"
         width="6"
         height="6"
         fill="#777"
         id="rect24" />
      <rect
         x="90"
         y="65"
         width="6"
         height="6"
         fill="#777"
         id="rect25" />
      <rect
         x="90"
         y="80"
         width="6"
         height="6"
         fill="#777"
         id="rect26" />
      <rect
         x="105"
         y="20"
         width="6"
         height="6"
         fill="#777"
         id="rect27" />
      <rect
         x="105"
         y="35"
         width="6"
         height="6"
         fill="#777"
         id="rect28" />
      <rect
         x="105"
         y="50"
         width="6"
         height="6"
         fill="#777"
         id="rect29" />
      <rect
         x="105"
         y="65"
         width="6"
         height="6"
         fill="#777"
         id="rect30" />
      <rect
         x="105"
         y="80"
         width="6"
         height="6"
         fill="#777"
         id="rect31" />
    </pattern>
    <!-- Lower half nature gradient -->
    <linearGradient
       id="nature-gradient"
       x1="0%"
       y1="0%"
       x2="100%"
       y2="0%">
      <stop
         offset="0%"
         stop-color="#2a9d8f"
         id="stop31" />
      <stop
         offset="50%"
         stop-color="#3db7a5"
         id="stop32" />
      <stop
         offset="100%"
         stop-color="#57cc99"
         id="stop33" />
    </linearGradient>
    <!-- Stress filter for people silhouettes -->
    <filter
       id="stress-blur"
       x="-0.004137931"
       y="-0.0325"
       width="1.01"
       height="1.0608333">
      <feGaussianBlur
         in="SourceGraphic"
         stdDeviation="1"
         id="feGaussianBlur33" />
      <feOffset
         dx="1"
         dy="1"
         id="feOffset33" />
    </filter>
  </defs>
  <!-- Background divide -->
  <rect
     x="0"
     y="0"
     width="800"
     height="400"
     fill="#3c3c3c"
     id="rect33" />
  <!-- City background with pattern -->
  <rect
     x="0"
     y="0"
     width="800"
     height="400"
     fill="url(#city-pattern)"
     id="rect34" />
  <!-- Upper half overlay - additional city elements -->
  <g
     id="g62">
    <!-- Smog/pollution -->
    <rect
       x="0"
       y="0"
       width="800"
       height="400"
       fill="#3c3c3c"
       fill-opacity="0.4"
       id="rect35" />
    <!-- Stressed people silhouettes -->
    <g
       filter="url(#stress-blur)"
       id="g50">
      <!-- Person in a hurry with briefcase -->
      <path
         d="M 150,350 C 152,340 155,335 150,330 L 145,320 L 150,300 L 155,320 L 160,330 C 155,335 158,340 160,350"
         fill="#222"
         id="path35" />
      <circle
         cx="152.5"
         cy="290"
         r="10"
         fill="#222"
         id="circle35" />
      <rect
         x="130"
         y="330"
         width="10"
         height="15"
         fill="#222"
         id="rect36" />
      <!-- Person hunched over phone -->
      <path
         d="M 250,350 C 245,340 242,330 245,320 C 248,310 245,300 240,295"
         fill="#222"
         id="path36" />
      <circle
         cx="237"
         cy="290"
         r="8"
         fill="#222"
         id="circle36" />
      <rect
         x="242"
         y="300"
         width="6"
         height="10"
         rx="1"
         fill="#222"
         id="rect37" />
      <!-- Person looking stressed with thought bubbles -->
      <path
         d="M 350,350 C 355,335 350,325 345,320 C 340,315 345,310 350,300"
         fill="#222"
         id="path37" />
      <circle
         cx="350"
         cy="290"
         r="10"
         fill="#222"
         id="circle37" />
      <path
         d="M 340,320 L 330,330"
         fill="none"
         stroke="#222"
         stroke-width="2"
         id="path38" />
      <path
         d="M 360,320 L 370,330"
         fill="none"
         stroke="#222"
         stroke-width="2"
         id="path39" />
      <!-- Thought bubbles -->
      <circle
         cx="330"
         cy="270"
         r="6"
         fill="#222"
         fill-opacity="0.3"
         id="circle39" />
      <circle
         cx="318"
         cy="260"
         r="4"
         fill="#222"
         fill-opacity="0.3"
         id="circle40" />
      <circle
         cx="308"
         cy="252"
         r="2"
         fill="#222"
         fill-opacity="0.3"
         id="circle41" />
      <path
         d="M 315,260 L 325,255"
         fill="none"
         stroke="#222"
         stroke-width="0.7"
         stroke-opacity="0.3"
         id="path41" />
      <path
         d="M 335,280 L 345,272"
         fill="none"
         stroke="#222"
         stroke-width="0.7"
         stroke-opacity="0.3"
         id="path42" />
      <!-- Dollar signs in thought bubbles -->
      <text
         x="330"
         y="273"
         font-family="Arial"
         font-size="8"
         fill="#555"
         id="text42">$</text>
      <!-- Group of disconnected people with phones/devices -->
      <circle
         cx="450"
         cy="290"
         r="8"
         fill="#222"
         id="circle42" />
      <path
         d="M 450,298 L 450,350"
         fill="none"
         stroke="#222"
         stroke-width="2"
         id="path43" />
      <rect
         x="445"
         y="310"
         width="5"
         height="8"
         rx="1"
         fill="#222"
         id="rect43" />
      <circle
         cx="470"
         cy="295"
         r="7"
         fill="#222"
         id="circle43" />
      <path
         d="M 470,302 L 470,350"
         fill="none"
         stroke="#222"
         stroke-width="2"
         id="path44" />
      <rect
         x="466"
         y="315"
         width="4"
         height="7"
         rx="1"
         fill="#222"
         id="rect44" />
      <circle
         cx="490"
         cy="293"
         r="9"
         fill="#222"
         id="circle44" />
      <path
         d="M 490,302 L 490,350"
         fill="none"
         stroke="#222"
         stroke-width="2"
         id="path45" />
      <rect
         x="486"
         y="312"
         width="5"
         height="9"
         rx="1"
         fill="#222"
         id="rect45" />
      <!-- Clock with chains/shackles -->
      <circle
         cx="550"
         cy="250"
         r="20"
         fill="none"
         stroke="#333"
         stroke-width="3"
         id="circle45" />
      <line
         x1="550"
         y1="250"
         x2="550"
         y2="235"
         stroke="#333"
         stroke-width="2"
         id="line45" />
      <line
         x1="550"
         y1="250"
         x2="560"
         y2="260"
         stroke="#333"
         stroke-width="2"
         id="line46" />
      <path
         d="M 550,270 L 550,290 Q 545,300 540,295 Q 535,290 530,295"
         stroke="#333"
         stroke-width="2"
         id="path46" />
      <path
         d="M 550,270 L 550,290 Q 555,300 560,295 Q 565,290 570,295"
         stroke="#333"
         stroke-width="2"
         id="path47" />
      <!-- Traffic jam with exhaust -->
      <rect
         x="550"
         y="320"
         width="40"
         height="15"
         rx="3"
         fill="#333"
         id="rect47" />
      <path
         d="M 550,325 Q 545,323 540,325 Q 535,327 530,325"
         fill="none"
         stroke="#555"
         stroke-width="2"
         opacity="0.6"
         id="path48" />
      <rect
         x="610"
         y="320"
         width="40"
         height="15"
         rx="3"
         fill="#333"
         id="rect48" />
      <path
         d="M 610,325 Q 605,322 600,325 Q 595,328 590,325"
         fill="none"
         stroke="#555"
         stroke-width="2"
         opacity="0.6"
         id="path49" />
      <rect
         x="670"
         y="320"
         width="40"
         height="15"
         rx="3"
         fill="#333"
         id="rect49" />
      <path
         d="M 670,325 Q 665,323 660,325 Q 655,327 650,325"
         fill="none"
         stroke="#555"
         stroke-width="2"
         opacity="0.6"
         id="path50" />
    </g>
    <!-- Power lines and industrial elements -->
    <line
       x1="100"
       y1="100"
       x2="300"
       y2="100"
       stroke="#222"
       stroke-width="2"
       id="line50" />
    <line
       x1="150"
       y1="100"
       x2="150"
       y2="50"
       stroke="#222"
       stroke-width="2"
       id="line51" />
    <line
       x1="200"
       y1="100"
       x2="200"
       y2="40"
       stroke="#222"
       stroke-width="2"
       id="line52" />
    <line
       x1="250"
       y1="100"
       x2="250"
       y2="60"
       stroke="#222"
       stroke-width="2"
       id="line53" />
    <!-- Factory smoke -->
    <path
       d="M 600,150 C 590,140 590,130 600,120 C 610,110 610,100 600,90 C 590,80 590,70 600,60"
       fill="none"
       stroke="#555"
       stroke-width="10"
       opacity="0.7"
       id="path53" />
    <path
       d="M 650,130 C 640,120 640,110 650,100 C 660,90 660,80 650,70"
       fill="none"
       stroke="#555"
       stroke-width="8"
       opacity="0.7"
       id="path54" />
    <!-- Factory building -->
    <rect
       x="575"
       y="150"
       width="100"
       height="80"
       fill="#444"
       id="rect54" />
    <rect
       x="590"
       y="170"
       width="15"
       height="25"
       fill="#333"
       id="rect55" />
    <rect
       x="620"
       y="170"
       width="15"
       height="25"
       fill="#333"
       id="rect56" />
    <rect
       x="650"
       y="170"
       width="15"
       height="25"
       fill="#333"
       id="rect57" />
    <!-- Cell phone tower -->
    <rect
       x="400"
       y="50"
       width="6"
       height="120"
       fill="#333"
       id="rect58" />
    <path
       d="M 403,50 L 383,70"
       stroke="#333"
       stroke-width="2"
       id="path58" />
    <path
       d="M 403,50 L 423,70"
       stroke="#333"
       stroke-width="2"
       id="path59" />
    <path
       d="M 403,80 L 383,100"
       stroke="#333"
       stroke-width="2"
       id="path60" />
    <path
       d="M 403,80 L 423,100"
       stroke="#333"
       stroke-width="2"
       id="path61" />
    <!-- Surveillance camera -->
    <circle
       cx="350"
       cy="150"
       r="5"
       fill="#333"
       id="circle61" />
    <path
       d="M 350,150 L 335,160 L 335,140 Z"
       fill="#333"
       id="path62" />
    <line
       x1="350"
       y1="150"
       x2="380"
       y2="150"
       stroke="#333"
       stroke-width="2"
       id="line62" />
  </g>
  <!-- Transition line -->
  <path
     d="M 0,400             Q 100,380 200,410             Q 300,430 400,390             Q 500,370 600,410             Q 700,430 800,390"
     fill="none"
     stroke="#555"
     stroke-width="2"
     id="path63" />
  <!-- Bottom half - flourishing community with nature -->
  <rect
     x="0"
     y="400"
     width="800"
     height="400"
     fill="url(#nature-gradient)"
     id="rect63" />
  <!-- Add texture and depth to bottom half -->
  <path
     d="M 0,420             Q 200,440 400,425             Q 600,410 800,430"
     fill="none"
     stroke="#57cc99"
     stroke-width="3"
     stroke-opacity="0.3"
     id="path64" />
  <path
     d="M 0,450             Q 200,470 400,455             Q 600,440 800,460"
     fill="none"
     stroke="#2a9d8f"
     stroke-width="2"
     stroke-opacity="0.2"
     id="path65" />
  <!-- Nature elements -->
  <g
     id="g159">
    <!-- Hills -->
    <path
       d="M 0,800               Q 100,750 200,780               Q 300,750 400,770               Q 500,750 600,780               Q 700,760 800,790               L 800,800 Z"
       fill="#4db992"
       id="path66" />
    <!-- Trees and plants -->
    <g
       id="g88">
      <!-- Tree 1 -->
      <rect
         x="120"
         y="670"
         width="10"
         height="40"
         fill="#5a3921"
         id="rect66" />
      <circle
         cx="125"
         cy="650"
         r="20"
         fill="#57cc99"
         id="circle66" />
      <!-- Tree 2 -->
      <rect
         x="220"
         y="650"
         width="12"
         height="50"
         fill="#5a3921"
         id="rect67" />
      <ellipse
         cx="226"
         cy="625"
         rx="25"
         ry="30"
         fill="#3db7a5"
         id="ellipse67" />
      <!-- Tree 3 -->
      <rect
         x="690"
         y="680"
         width="8"
         height="30"
         fill="#5a3921"
         id="rect68" />
      <circle
         cx="694"
         cy="665"
         r="15"
         fill="#57cc99"
         id="circle68" />
      <!-- Small forest -->
      <rect
         x="750"
         y="670"
         width="7"
         height="25"
         fill="#5a3921"
         id="rect69" />
      <circle
         cx="754"
         cy="655"
         r="12"
         fill="#57cc99"
         id="circle69" />
      <rect
         x="770"
         y="675"
         width="6"
         height="20"
         fill="#5a3921"
         id="rect70" />
      <circle
         cx="773"
         cy="665"
         r="10"
         fill="#3db7a5"
         id="circle70" />
      <rect
         x="730"
         y="673"
         width="8"
         height="28"
         fill="#5a3921"
         id="rect71" />
      <circle
         cx="734"
         cy="660"
         r="13"
         fill="#2a9d8f"
         id="circle71" />
      <!-- Bushes -->
      <ellipse
         cx="350"
         cy="720"
         rx="30"
         ry="15"
         fill="#57cc99"
         id="ellipse71" />
      <ellipse
         cx="500"
         cy="730"
         rx="40"
         ry="20"
         fill="#3db7a5"
         id="ellipse72" />
      <ellipse
         cx="600"
         cy="710"
         rx="25"
         ry="12"
         fill="#57cc99"
         id="ellipse73" />
      <!-- Flowers -->
      <g
         transform="translate(380, 680)"
         id="g77">
        <circle
           cx="0"
           cy="0"
           r="5"
           fill="#FFD700"
           id="circle73" />
        <circle
           cx="-4"
           cy="-4"
           r="3"
           fill="#ff69b4"
           id="circle74" />
        <circle
           cx="4"
           cy="-4"
           r="3"
           fill="#ff69b4"
           id="circle75" />
        <circle
           cx="-4"
           cy="4"
           r="3"
           fill="#ff69b4"
           id="circle76" />
        <circle
           cx="4"
           cy="4"
           r="3"
           fill="#ff69b4"
           id="circle77" />
      </g>
      <g
         transform="translate(540, 700)"
         id="g82">
        <circle
           cx="0"
           cy="0"
           r="4"
           fill="#FFD700"
           id="circle78" />
        <circle
           cx="-3"
           cy="-3"
           r="2"
           fill="#ff69b4"
           id="circle79" />
        <circle
           cx="3"
           cy="-3"
           r="2"
           fill="#ff69b4"
           id="circle80" />
        <circle
           cx="-3"
           cy="3"
           r="2"
           fill="#ff69b4"
           id="circle81" />
        <circle
           cx="3"
           cy="3"
           r="2"
           fill="#ff69b4"
           id="circle82" />
      </g>
      <g
         transform="translate(620, 690)"
         id="g87">
        <circle
           cx="0"
           cy="0"
           r="4"
           fill="#FFD700"
           id="circle83" />
        <circle
           cx="-3"
           cy="-3"
           r="2"
           fill="#9c27b0"
           id="circle84" />
        <circle
           cx="3"
           cy="-3"
           r="2"
           fill="#9c27b0"
           id="circle85" />
        <circle
           cx="-3"
           cy="3"
           r="2"
           fill="#9c27b0"
           id="circle86" />
        <circle
           cx="3"
           cy="3"
           r="2"
           fill="#9c27b0"
           id="circle87" />
      </g>
    </g>
    <!-- Flowing water -->
    <path
       d="M 400,700               Q 420,705 430,700               Q 440,695 450,700               Q 460,705 470,700              Q 480,695 490,700              Q 500,705 510,700              L 510,720              L 400,720 Z"
       fill="#64b5f6"
       opacity="0.7"
       id="path88" />
    <!-- Small animated wave pattern on water -->
    <path
       d="M 410,705               Q 420,702 430,705               Q 440,708 450,705              Q 460,702 470,705              Q 480,708 490,705"
       fill="none"
       stroke="#ffffff"
       stroke-width="1"
       stroke-opacity="0.4"
       id="path89" />
    <!-- Community of connected people -->
    <g
       id="g123">
      <!-- Circle of people -->
      <circle
         cx="300"
         cy="600"
         r="30"
         fill="none"
         stroke="#fff"
         stroke-width="1"
         opacity="0.5"
         id="circle89" />
      <!-- Person 1 -->
      <circle
         cx="280"
         cy="580"
         r="6"
         fill="#fff"
         id="circle90" />
      <path
         d="M 280,586 L 280,600"
         stroke="#fff"
         stroke-width="2"
         id="path90" />
      <path
         d="M 270,590 L 290,590"
         stroke="#fff"
         stroke-width="2"
         id="path91" />
      <path
         d="M 280,600 L 275,615"
         stroke="#fff"
         stroke-width="2"
         id="path92" />
      <path
         d="M 280,600 L 285,615"
         stroke="#fff"
         stroke-width="2"
         id="path93" />
      <!-- Person 2 -->
      <circle
         cx="320"
         cy="580"
         r="6"
         fill="#fff"
         id="circle93" />
      <path
         d="M 320,586 L 320,600"
         stroke="#fff"
         stroke-width="2"
         id="path94" />
      <path
         d="M 310,590 L 330,590"
         stroke="#fff"
         stroke-width="2"
         id="path95" />
      <path
         d="M 320,600 L 315,615"
         stroke="#fff"
         stroke-width="2"
         id="path96" />
      <path
         d="M 320,600 L 325,615"
         stroke="#fff"
         stroke-width="2"
         id="path97" />
      <!-- Person 3 -->
      <circle
         cx="300"
         cy="630"
         r="6"
         fill="#fff"
         id="circle97" />
      <path
         d="M 300,636 L 300,650"
         stroke="#fff"
         stroke-width="2"
         id="path98" />
      <path
         d="M 290,640 L 310,640"
         stroke="#fff"
         stroke-width="2"
         id="path99" />
      <path
         d="M 300,650 L 295,665"
         stroke="#fff"
         stroke-width="2"
         id="path100" />
      <path
         d="M 300,650 L 305,665"
         stroke="#fff"
         stroke-width="2"
         id="path101" />
      <!-- Connections between people -->
      <line
         x1="286"
         y1="586"
         x2="314"
         y2="586"
         stroke="#fff"
         stroke-width="1"
         id="line101" />
      <line
         x1="286"
         y1="600"
         x2="300"
         y2="624"
         stroke="#fff"
         stroke-width="1"
         id="line102" />
      <line
         x1="314"
         y1="600"
         x2="300"
         y2="624"
         stroke="#fff"
         stroke-width="1"
         id="line103" />
      <!-- More people interacting -->
      <g
         transform="translate(100, 550)"
         id="g110">
        <!-- Children playing -->
        <circle
           cx="0"
           cy="0"
           r="4"
           fill="#fff"
           id="circle103" />
        <path
           d="M 0,4 L 0,12"
           stroke="#fff"
           stroke-width="1.5"
           id="path103" />
        <path
           d="M -5,8 L 5,8"
           stroke="#fff"
           stroke-width="1.5"
           id="path104" />
        <path
           d="M 0,12 L -3,20"
           stroke="#fff"
           stroke-width="1.5"
           id="path105" />
        <path
           d="M 0,12 L 3,20"
           stroke="#fff"
           stroke-width="1.5"
           id="path106" />
        <circle
           cx="15"
           cy="2"
           r="3.5"
           fill="#fff"
           id="circle106" />
        <path
           d="M 15,5.5 L 15,14"
           stroke="#fff"
           stroke-width="1.5"
           id="path107" />
        <path
           d="M 10,9 L 20,9"
           stroke="#fff"
           stroke-width="1.5"
           id="path108" />
        <path
           d="M 15,14 L 12,21"
           stroke="#fff"
           stroke-width="1.5"
           id="path109" />
        <path
           d="M 15,14 L 18,21"
           stroke="#fff"
           stroke-width="1.5"
           id="path110" />
        <!-- Ball they're playing with -->
        <circle
           cx="7"
           cy="-5"
           r="3"
           fill="#fff"
           stroke="#2a9d8f"
           stroke-width="0.5"
           id="circle110" />
      </g>
      <!-- Community gardening -->
      <g
         transform="translate(150, 620)"
         id="g122">
        <circle
           cx="0"
           cy="0"
           r="5"
           fill="#fff"
           id="circle111" />
        <path
           d="M 0,5 L 0,15"
           stroke="#fff"
           stroke-width="1.5"
           id="path111" />
        <path
           d="M -6,10 L 6,10"
           stroke="#fff"
           stroke-width="1.5"
           id="path112" />
        <path
           d="M 0,15 L -5,25"
           stroke="#fff"
           stroke-width="1.5"
           id="path113" />
        <path
           d="M 0,15 L 5,25"
           stroke="#fff"
           stroke-width="1.5"
           id="path114" />
        <!-- Kneeling gardener -->
        <circle
           cx="20"
           cy="5"
           r="4"
           fill="#fff"
           id="circle114" />
        <path
           d="M 20,9 L 20,15"
           stroke="#fff"
           stroke-width="1.5"
           id="path115" />
        <path
           d="M 15,12 L 25,12"
           stroke="#fff"
           stroke-width="1.5"
           id="path116" />
        <path
           d="M 20,15 L 15,20"
           stroke="#fff"
           stroke-width="1.5"
           id="path117" />
        <path
           d="M 15,20 L 10,18"
           stroke="#fff"
           stroke-width="1"
           id="path118" />
        <!-- Garden bed they're working on -->
        <rect
           x="0"
           y="28"
           width="30"
           height="10"
           rx="2"
           fill="#8d6e63"
           opacity="0.8"
           id="rect118" />
        <path
           d="M 5,28 L 5,24"
           stroke="#57cc99"
           stroke-width="1"
           id="path119" />
        <path
           d="M 10,28 L 10,23"
           stroke="#57cc99"
           stroke-width="1"
           id="path120" />
        <path
           d="M 15,28 L 15,25"
           stroke="#57cc99"
           stroke-width="1"
           id="path121" />
        <circle
           cx="5"
           cy="22"
           r="2"
           fill="#FFD700"
           id="circle121" />
        <path
           d="M 2,21 L 8,21"
           stroke="#57cc99"
           stroke-width="0.5"
           id="path122" />
      </g>
    </g>
    <!-- Creative/art elements -->
    <g
       id="g158">
      <!-- Easel -->
      <path
         d="M 550,570 L 530,620 L 570,620 Z"
         fill="none"
         stroke="#fff"
         stroke-width="2"
         id="path123" />
      <rect
         x="540"
         y="580"
         width="20"
         height="25"
         fill="#fff"
         opacity="0.6"
         id="rect123" />
      <!-- Artist -->
      <circle
         cx="520"
         cy="590"
         r="5"
         fill="#fff"
         id="circle123" />
      <path
         d="M 520,595 L 520,610"
         stroke="#fff"
         stroke-width="1.5"
         id="path124" />
      <path
         d="M 512,600 L 528,600"
         stroke="#fff"
         stroke-width="1.5"
         id="path125" />
      <path
         d="M 520,610 L 515,625"
         stroke="#fff"
         stroke-width="1.5"
         id="path126" />
      <path
         d="M 520,610 L 525,625"
         stroke="#fff"
         stroke-width="1.5"
         id="path127" />
      <!-- Arm painting -->
      <path
         d="M 528,600 Q 535,595 540,590"
         stroke="#fff"
         stroke-width="1.5"
         id="path128" />
      <!-- Music notes with musicians -->
      <circle
         cx="630"
         cy="560"
         r="5"
         fill="#fff"
         id="circle128" />
      <path
         d="M 630,565 L 630,580"
         stroke="#fff"
         stroke-width="1.5"
         id="path129" />
      <path
         d="M 622,570 L 638,570"
         stroke="#fff"
         stroke-width="1.5"
         id="path130" />
      <path
         d="M 630,580 L 625,590"
         stroke="#fff"
         stroke-width="1.5"
         id="path131" />
      <path
         d="M 630,580 L 635,590"
         stroke="#fff"
         stroke-width="1.5"
         id="path132" />
      <!-- Guitar player -->
      <path
         d="M 650,550 C 655,545 660,550 658,555 C 656,560 652,558 650,555 Z"
         fill="#fff"
         id="path133" />
      <line
         x1="658"
         y1="555"
         x2="658"
         y2="570"
         stroke="#fff"
         stroke-width="1"
         id="line133" />
      <path
         d="M 670,560 C 675,555 680,560 678,565 C 676,570 672,568 670,565 Z"
         fill="#fff"
         id="path134" />
      <line
         x1="678"
         y1="565"
         x2="678"
         y2="580"
         stroke="#fff"
         stroke-width="1"
         id="line134" />
      <!-- Additional music notes -->
      <path
         d="M 640,540 L 643,540 L 643,547 C 646,545 649,547 648,550 C 647,553 644,552 643,550 Z"
         fill="#fff"
         id="path135" />
      <path
         d="M 665,535 L 668,535 L 668,542 C 671,540 674,542 673,545 C 672,548 669,547 668,545 Z"
         fill="#fff"
         id="path136" />
      <!-- Dancers -->
      <circle
         cx="690"
         cy="580"
         r="4"
         fill="#fff"
         id="circle136" />
      <path
         d="M 690,584 L 690,595"
         stroke="#fff"
         stroke-width="1.5"
         id="path137" />
      <path
         d="M 683,590 L 697,590"
         stroke="#fff"
         stroke-width="1.5"
         id="path138" />
      <path
         d="M 690,595 L 683,605"
         stroke="#fff"
         stroke-width="1.5"
         id="path139" />
      <path
         d="M 690,595 L 697,605"
         stroke="#fff"
         stroke-width="1.5"
         id="path140" />
      <!-- Dancing pose -->
      <path
         d="M 683,590 Q 678,585 680,580"
         stroke="#fff"
         stroke-width="1"
         id="path141" />
      <circle
         cx="710"
         cy="585"
         r="4"
         fill="#fff"
         id="circle141" />
      <path
         d="M 710,589 L 710,600"
         stroke="#fff"
         stroke-width="1.5"
         id="path142" />
      <path
         d="M 703,595 L 717,595"
         stroke="#fff"
         stroke-width="1.5"
         id="path143" />
      <path
         d="M 710,600 L 703,610"
         stroke="#fff"
         stroke-width="1.5"
         id="path144" />
      <path
         d="M 710,600 L 717,610"
         stroke="#fff"
         stroke-width="1.5"
         id="path145" />
      <!-- Dancing pose -->
      <path
         d="M 717,595 Q 722,600 720,605"
         stroke="#fff"
         stroke-width="1"
         id="path146" />
      <!-- Community garden with more detail -->
      <rect
         x="430"
         y="620"
         width="60"
         height="30"
         fill="#8d6e63"
         opacity="0.6"
         rx="3"
         id="rect146" />
      <ellipse
         cx="440"
         cy="615"
         rx="5"
         ry="8"
         fill="#cddc39"
         id="ellipse146" />
      <ellipse
         cx="450"
         cy="612"
         rx="4"
         ry="7"
         fill="#8bc34a"
         id="ellipse147" />
      <ellipse
         cx="460"
         cy="614"
         rx="6"
         ry="9"
         fill="#cddc39"
         id="ellipse148" />
      <ellipse
         cx="470"
         cy="613"
         rx="4"
         ry="6"
         fill="#8bc34a"
         id="ellipse149" />
      <ellipse
         cx="480"
         cy="615"
         rx="5"
         ry="8"
         fill="#cddc39"
         id="ellipse150" />
      <!-- Garden details -->
      <line
         x1="440"
         y1="615"
         x2="440"
         y2="625"
         stroke="#8d6e63"
         stroke-width="1"
         id="line150" />
      <line
         x1="450"
         y1="612"
         x2="450"
         y2="625"
         stroke="#8d6e63"
         stroke-width="1"
         id="line151" />
      <line
         x1="460"
         y1="614"
         x2="460"
         y2="625"
         stroke="#8d6e63"
         stroke-width="1"
         id="line152" />
      <line
         x1="470"
         y1="613"
         x2="470"
         y2="625"
         stroke="#8d6e63"
         stroke-width="1"
         id="line153" />
      <line
         x1="480"
         y1="615"
         x2="480"
         y2="625"
         stroke="#8d6e63"
         stroke-width="1"
         id="line154" />
      <!-- Market stall -->
      <rect
         x="390"
         y="550"
         width="40"
         height="25"
         fill="none"
         stroke="#fff"
         stroke-width="1.5"
         id="rect154" />
      <path
         d="M 385,550 L 395,535 L 425,535 L 435,550"
         fill="none"
         stroke="#fff"
         stroke-width="1.5"
         id="path154" />
      <rect
         x="395"
         y="550"
         width="30"
         height="5"
         fill="#fff"
         opacity="0.4"
         id="rect155" />
      <!-- People at market -->
      <circle
         cx="380"
         cy="560"
         r="4"
         fill="#fff"
         id="circle155" />
      <path
         d="M 380,564 L 380,575"
         stroke="#fff"
         stroke-width="1.5"
         id="path155" />
      <path
         d="M 373,570 L 387,570"
         stroke="#fff"
         stroke-width="1.5"
         id="path156" />
      <path
         d="M 380,575 L 375,585"
         stroke="#fff"
         stroke-width="1.5"
         id="path157" />
      <path
         d="M 380,575 L 385,585"
         stroke="#fff"
         stroke-width="1.5"
         id="path158" />
    </g>
  </g>
  <!-- Main title text - organic/handwritten style font -->
  <text
     x="399.39047"
     y="288.68018"
     font-family="'Dancing Script', cursive, serif"
     font-size="47.1062px"
     font-weight="normal"
     text-anchor="middle"
     fill="#ffffff"
     filter="drop-shadow(0px 2px 3px rgba(0,0,0,0.4))"
     id="text159"
     style="stroke-width:0.785104">Från överlevnad till blomstring</text>
  <!-- Dividing line between sections -->
  <path
     d="M 0,400             Q 100,380 200,410             Q 300,430 400,390             Q 500,370 600,410             Q 700,430 800,390"
     fill="none"
     stroke="#ffffff"
     stroke-width="1"
     stroke-opacity="0.4"
     stroke-dasharray="5,5"
     id="path159" />
  <!-- Subtext at bottom with cleaner presentation -->
  <g
     transform="translate(400, 750)"
     id="g160">
    <rect
       x="-200"
       y="-20"
       width="400"
       height="40"
       rx="20"
       fill="#2a9d8f"
       fill-opacity="0.2"
       id="rect159" />
    <text
       font-family="Arial, sans-serif"
       font-size="24px"
       font-weight="normal"
       text-anchor="middle"
       fill="#ffffff"
       filter="drop-shadow(0px 1px 1px rgba(0,0,0,0.2))"
       id="text160">Följ Fjärilspartiet • fjarilspartiet.se</text>
  </g>
  <!-- Subtle glows for added effect -->
  <circle
     cx="400"
     cy="400"
     r="150"
     fill="#37c8ab"
     opacity="0.07"
     filter="blur(60px)"
     id="circle160" />
  <circle
     cx="400"
     cy="400"
     r="100"
     fill="#de87cd"
     opacity="0.07"
     filter="blur(40px)"
     id="circle161" />
  <g
     id="layer1"
     transform="matrix(0.76392149,0,0,0.76392149,298.93955,289.54384)">
    <g
       id="g6349"
       transform="translate(3.3937378,-2.9513774)">
      <path
         style="fill:#916f6f;fill-opacity:1;stroke:#000000;stroke-width:0.240799px;stroke-linecap:butt;stroke-linejoin:miter;stroke-opacity:1"
         d="m 186.02665,214.41177 c -0.6473,-1.38039 -57.11486,-97.03295 -57.11486,-97.03295"
         id="path857"
         sodipodi:nodetypes="cc" />
      <path
         style="fill:#de87cd;fill-opacity:1;stroke:none;stroke-width:0.240799px;stroke-linecap:butt;stroke-linejoin:miter;stroke-opacity:1"
         d="m 124.91213,129.67987 c 0,0 -99.930879,-29.0738 -117.9066682,-13.68989 -4.7639298,4.56643 11.1116632,13.10254 19.9268132,23.79409 9.787402,11.87074 22.550028,13.73946 30.511727,22.59599 9.340043,10.38979 16.854238,23.1014 24.120002,29.22825 16.585672,13.98587 60.952926,-25.58086 63.003626,-23.39668 0.93324,0.994 -21.98985,26.38055 -32.65033,41.53564 -17.690553,25.14914 -12.052414,33.75789 9.19003,45.54453 18.41695,10.21888 51.15788,-2.89972 59.81143,-20.3735 4.59844,-9.28544 -8.85521,-29.77325 -8.85521,-29.77325 z"
         id="path859"
         sodipodi:nodetypes="ccssssssscc" />
      <path
         style="fill:#37c8ab;fill-opacity:1;stroke:none;stroke-width:0.240799px;stroke-linecap:butt;stroke-linejoin:miter;stroke-opacity:1"
         d="m 140.61606,120.79857 c 0,0 23.22854,-98.652745 41.32862,-108.639375 6.87673,-3.7942009 13.22778,12.57948 17.41155,29.749287 3.13973,12.885242 -0.68393,26.698277 2.6072,39.235924 3.13509,11.943181 5.39564,26.131544 9.60557,34.918844 9.90706,20.67874 -46.39347,40.73378 -46.39347,40.73378 0,0 34.46532,-5.82285 51.77412,-6.86088 22.48158,-1.34824 28.81837,-2.76661 34.34583,27.36745 3.64826,19.88925 -20.54376,43.27205 -40.69161,44.99134 -11.58488,0.98858 -25.4329,-25.44458 -25.4329,-25.44458 z"
         id="path861"
         sodipodi:nodetypes="csssscssscc" />
      <path
         style="fill:none;stroke:#916f6f;stroke-width:2.408;stroke-linecap:round;stroke-linejoin:miter;stroke-miterlimit:4;stroke-dasharray:none;stroke-opacity:1"
         d="M 118.02155,116.9044 66.030886,89.285014"
         id="path863" />
      <path
         style="fill:none;fill-opacity:1;stroke:#916f6f;stroke-width:2.408;stroke-linecap:round;stroke-linejoin:miter;stroke-miterlimit:4;stroke-dasharray:none;stroke-opacity:1"
         d="M 129.68602,108.95303 119.70286,58.862544"
         id="path865"
         sodipodi:nodetypes="cc" />
      <path
         style="fill:#916f6f;fill-opacity:1;stroke:#000000;stroke-width:0.240799px;stroke-linecap:butt;stroke-linejoin:miter;stroke-opacity:1"
         d="m 176.40313,207.11128 9.62352,7.30049 -2.86508,-13.64822"
         id="path2264" />
      <path
         style="fill:#916f6f;fill-opacity:1;stroke:none;stroke-width:0.240799px;stroke-linecap:butt;stroke-linejoin:miter;stroke-opacity:1"
         d="m 135.80237,130.15431 -10.89024,-0.47444 47.15142,75.46518 13.9631,9.26672 c -14.24817,-24.96933 -13.45029,-24.59059 -50.22428,-84.25746 z"
         id="path3079"
         sodipodi:nodetypes="ccccc" />
      <path
         style="fill:#6c5353;stroke:none;stroke-width:0.240799px;stroke-linecap:butt;stroke-linejoin:miter;stroke-opacity:1"
         d="m 140.61606,120.79857 -4.81369,9.35574 50.22428,84.25746 -0.85568,-17.56141 z"
         id="path3081"
         sodipodi:nodetypes="ccccc" />
      <path
         style="fill:#916f6f;stroke:none;stroke-width:0.264583;stroke-linecap:round;stroke-miterlimit:4;stroke-dasharray:none;stroke-opacity:1"
         id="path895"
         sodipodi:type="arc"
         sodipodi:cx="129.95512"
         sodipodi:cy="121.97241"
         sodipodi:rx="13.327892"
         sodipodi:ry="13.022045"
         sodipodi:start="4.712389"
         sodipodi:end="4.6921955"
         sodipodi:open="true"
         sodipodi:arc-type="arc"
         d="m 129.95512,108.95037 a 13.327892,13.022045 0 0 1 13.32773,12.9563 13.327892,13.022045 0 0 1 -13.19316,13.08712 13.327892,13.022045 0 0 1 -13.46093,-12.82417 13.327892,13.022045 0 0 1 13.05725,-13.2166" />
    </g>
  </g>
</svg>
