<?xml version="1.0" encoding="UTF-8" standalone="no"?>
<svg
   viewBox="0 0 800 400"
   version="1.1"
   id="svg10"
   sodipodi:docname="minimalist-scandinavian-svg.svg"
   inkscape:version="1.4.2 (ebf0e940d0, 2025-05-08)"
   xmlns:inkscape="http://www.inkscape.org/namespaces/inkscape"
   xmlns:sodipodi="http://sodipodi.sourceforge.net/DTD/sodipodi-0.dtd"
   xmlns="http://www.w3.org/2000/svg"
   xmlns:svg="http://www.w3.org/2000/svg">
  <sodipodi:namedview
     id="namedview10"
     pagecolor="#ffffff"
     bordercolor="#000000"
     borderopacity="0.25"
     inkscape:showpageshadow="2"
     inkscape:pageopacity="0.0"
     inkscape:pagecheckerboard="0"
     inkscape:deskcolor="#d1d1d1"
     inkscape:zoom="1.4955308"
     inkscape:cx="226.34104"
     inkscape:cy="110.99738"
     inkscape:window-width="2520"
     inkscape:window-height="1048"
     inkscape:window-x="0"
     inkscape:window-y="0"
     inkscape:window-maximized="1"
     inkscape:current-layer="svg10" />
  <!-- Definitions for reuse -->
  <defs
     id="defs2">
    <!-- Accent color as turquoise -->
    <style
       id="style1">
      @import url('https://fonts.googleapis.com/css2?family=Open+Sans:wght@400;600=swap');
      
      .icon-bg {
        fill: white;
        stroke: black;
        stroke-width: 2;
      }
      
      .icon-accent {
        fill: #37c8ab;
      }
      
      .label {
        font-family: 'Open Sans', sans-serif;
        font-size: 18px;
        text-anchor: middle;
        fill: black;
      }
      
      .title {
        font-family: 'Open Sans', sans-serif;
        font-size: 24px;
        font-weight: 600;
        text-anchor: middle;
        fill: black;
      }
      
      .subtitle {
        font-family: 'Open Sans', sans-serif;
        font-size: 14px;
        text-anchor: middle;
        fill: #37c8ab;
      }
    </style>
    <!-- Heart shape for freedom -->
    <path
       id="heart"
       d="M25,10 a12.5,12.5 0 0,1 0,20 L0,50 L-25,30 a12.5,12.5 0 0,1 0,-20 a12.5,12.5 0 0,1 25,0 a12.5,12.5 0 0,1 25,0" />
    <!-- Hands shape for community -->
    <g
       id="hands">
      <path
         d="M-25,-5 C-18,5 -15,15 -15,25 L-5,25 C-5,10 -10,-5 -25,-15 Z"
         id="path1" />
      <path
         d="M25,-5 C18,5 15,15 15,25 L5,25 C5,10 10,-5 25,-15 Z"
         id="path2" />
    </g>
    <!-- Butterfly shape for future -->
    <path
       id="butterfly-wing-left"
       d="M0,0 C-15,-20 -35,-15 -30,0 C-25,15 -10,30 0,15 C-5,5 -5,-5 0,0" />
    <path
       id="butterfly-wing-right"
       d="M0,0 C15,-20 35,-15 30,0 C25,15 10,30 0,15 C5,5 5,-5 0,0" />
    <path
       id="butterfly-body"
       d="M0,-5 L0,25 M-3,2 L3,2" />
  </defs>
  <!-- Background -->
  <rect
     width="800"
     height="400"
     fill="white"
     id="rect2" />
  <!-- Icon 1: Heart (Freedom) -->
  <circle
     class="icon-bg"
     cx="200"
     cy="120"
     r="60"
     id="circle2" />
  <path
     id="use2"
     d="m 230,150 -30,24 -30,-24 c -19.82033,-19.71158 -4.60107,-45.57882 15,-38.99999 7.85371,2.63599 15,6.71571 15,14.99999 0,-8.28428 8.13417,-12.63592 15.43735,-14.91725 C 241.01359,104.38939 250.14075,133.33998 230,150 Z"
     style="fill:#37c8ab;stroke-width:1.2"
     sodipodi:nodetypes="cccsccc" />
  <text
     class="label"
     x="200"
     y="220"
     id="text2">Frihet</text>
  <!-- Plus sign -->
  <text
     x="300"
     y="130"
     font-family="Open Sans"
     font-size="36"
     text-anchor="middle"
     fill="black"
     id="text3">+</text>
  <!-- Icon 2: Hands (Community) -->
  <g
     transform="translate(400, 120)"
     id="g4">
    <circle
       class="icon-bg"
       cx="0"
       cy="0"
       r="60"
       id="circle3" />
    <use
       href="#hands"
       class="icon-accent"
       transform="scale(1.8)"
       id="use3" />
    <text
       class="label"
       x="0"
       y="100"
       id="text4">Gemenskap</text>
  </g>
  <!-- Equals sign -->
  <text
     x="500"
     y="130"
     font-family="Open Sans"
     font-size="36"
     text-anchor="middle"
     fill="black"
     id="text5">=</text>
  <!-- Icon 3: Butterfly (Future) -->
  <g
     transform="translate(600, 120)"
     id="g8">
    <circle
       class="icon-bg"
       cx="0"
       cy="0"
       r="60"
       id="circle5" />
    <g
       class="icon-accent"
       id="g7">
      <use
         href="#butterfly-wing-left"
         id="use5" />
      <use
         href="#butterfly-wing-right"
         id="use6" />
      <use
         href="#butterfly-body"
         stroke="#37c8ab"
         stroke-width="2"
         fill="none"
         id="use7" />
    </g>
    <text
       class="label"
       x="0"
       y="100"
       id="text7">Framtid</text>
  </g>
  <!-- Main message and link -->
  <g
     transform="translate(400, 270)"
     id="g9">
    <text
       class="title"
       x="0"
       y="0"
       id="text8">Fjärilspartiet</text>
    <a
       href="https://fjarilspartiet.se"
       id="a9">
      <text
         class="subtitle"
         x="0"
         y="25"
         id="text9">fjarilspartiet.se</text>
    </a>
  </g>
  <!-- Horizontal line with accent in the middle -->
  <line
     x1="200"
     y1="310"
     x2="600"
     y2="310"
     stroke="black"
     stroke-width="1"
     id="line9" />
  <line
     x1="350"
     y1="310"
     x2="450"
     y2="310"
     stroke="#37c8ab"
     stroke-width="3"
     id="line10" />
</svg>
