<?xml version="1.0" encoding="UTF-8" standalone="no"?>
<!-- Created with Inkscape (http://www.inkscape.org/) -->

<svg
   width="1000"
   height="1000"
   viewBox="0 0 264.58333 264.58334"
   version="1.1"
   id="svg5"
   inkscape:version="1.1.2 (0a00cf5339, 2022-02-04)"
   sodipodi:docname="fjäril.svg"
   xmlns:inkscape="http://www.inkscape.org/namespaces/inkscape"
   xmlns:sodipodi="http://sodipodi.sourceforge.net/DTD/sodipodi-0.dtd"
   xmlns="http://www.w3.org/2000/svg"
   xmlns:svg="http://www.w3.org/2000/svg">
  <sodipodi:namedview
     id="namedview7"
     pagecolor="#ffffff"
     bordercolor="#666666"
     borderopacity="1.0"
     inkscape:pageshadow="2"
     inkscape:pageopacity="0.0"
     inkscape:pagecheckerboard="0"
     inkscape:document-units="mm"
     showgrid="false"
     units="px"
     width="1000px"
     inkscape:zoom="0.54803752"
     inkscape:cx="166.04703"
     inkscape:cy="498.14108"
     inkscape:window-width="2520"
     inkscape:window-height="1048"
     inkscape:window-x="0"
     inkscape:window-y="0"
     inkscape:window-maximized="1"
     inkscape:current-layer="layer1" />
  <defs
     id="defs2" />
  <g
     inkscape:label="Layer 1"
     inkscape:groupmode="layer"
     id="layer1">
    <g
       id="g6349"
       transform="translate(3.3937378,-2.9513774)">
      <path
         style="fill:#916f6f;fill-opacity:1;stroke:#000000;stroke-width:0.240799px;stroke-linecap:butt;stroke-linejoin:miter;stroke-opacity:1"
         d="m 186.02665,214.41177 c -0.6473,-1.38039 -57.11486,-97.03295 -57.11486,-97.03295"
         id="path857"
         sodipodi:nodetypes="cc" />
      <path
         style="fill:#de87cd;fill-opacity:1;stroke:none;stroke-width:0.240799px;stroke-linecap:butt;stroke-linejoin:miter;stroke-opacity:1"
         d="m 124.91213,129.67987 c 0,0 -99.930879,-29.0738 -117.9066682,-13.68989 -4.7639298,4.56643 11.1116632,13.10254 19.9268132,23.79409 9.787402,11.87074 22.550028,13.73946 30.511727,22.59599 9.340043,10.38979 16.854238,23.1014 24.120002,29.22825 16.585672,13.98587 60.952926,-25.58086 63.003626,-23.39668 0.93324,0.994 -21.98985,26.38055 -32.65033,41.53564 -17.690553,25.14914 -12.052414,33.75789 9.19003,45.54453 18.41695,10.21888 51.15788,-2.89972 59.81143,-20.3735 4.59844,-9.28544 -8.85521,-29.77325 -8.85521,-29.77325 z"
         id="path859"
         sodipodi:nodetypes="ccssssssscc" />
      <path
         style="fill:#37c8ab;fill-opacity:1;stroke:none;stroke-width:0.240799px;stroke-linecap:butt;stroke-linejoin:miter;stroke-opacity:1"
         d="m 140.61606,120.79857 c 0,0 23.22854,-98.652745 41.32862,-108.639375 6.87673,-3.7942009 13.22778,12.57948 17.41155,29.749287 3.13973,12.885242 -0.68393,26.698277 2.6072,39.235924 3.13509,11.943181 5.39564,26.131544 9.60557,34.918844 9.90706,20.67874 -46.39347,40.73378 -46.39347,40.73378 0,0 34.46532,-5.82285 51.77412,-6.86088 22.48158,-1.34824 28.81837,-2.76661 34.34583,27.36745 3.64826,19.88925 -20.54376,43.27205 -40.69161,44.99134 -11.58488,0.98858 -25.4329,-25.44458 -25.4329,-25.44458 z"
         id="path861"
         sodipodi:nodetypes="csssscssscc" />
      <path
         style="fill:none;stroke:#916f6f;stroke-width:2.408;stroke-linecap:round;stroke-linejoin:miter;stroke-miterlimit:4;stroke-dasharray:none;stroke-opacity:1"
         d="M 118.02155,116.9044 66.030886,89.285014"
         id="path863" />
      <path
         style="fill:none;fill-opacity:1;stroke:#916f6f;stroke-width:2.408;stroke-linecap:round;stroke-linejoin:miter;stroke-miterlimit:4;stroke-dasharray:none;stroke-opacity:1"
         d="M 129.68602,108.95303 119.70286,58.862544"
         id="path865"
         sodipodi:nodetypes="cc" />
      <path
         style="fill:#916f6f;fill-opacity:1;stroke:#000000;stroke-width:0.240799px;stroke-linecap:butt;stroke-linejoin:miter;stroke-opacity:1"
         d="m 176.40313,207.11128 9.62352,7.30049 -2.86508,-13.64822"
         id="path2264" />
      <path
         style="fill:#916f6f;fill-opacity:1;stroke:none;stroke-width:0.240799px;stroke-linecap:butt;stroke-linejoin:miter;stroke-opacity:1"
         d="m 135.80237,130.15431 -10.89024,-0.47444 47.15142,75.46518 13.9631,9.26672 c -14.24817,-24.96933 -13.45029,-24.59059 -50.22428,-84.25746 z"
         id="path3079"
         sodipodi:nodetypes="ccccc" />
      <path
         style="fill:#6c5353;stroke:none;stroke-width:0.240799px;stroke-linecap:butt;stroke-linejoin:miter;stroke-opacity:1"
         d="m 140.61606,120.79857 -4.81369,9.35574 50.22428,84.25746 -0.85568,-17.56141 z"
         id="path3081"
         sodipodi:nodetypes="ccccc" />
      <path
         style="fill:#916f6f;stroke:none;stroke-width:0.264583;stroke-linecap:round;stroke-miterlimit:4;stroke-dasharray:none;stroke-opacity:1"
         id="path895"
         sodipodi:type="arc"
         sodipodi:cx="129.95512"
         sodipodi:cy="121.97241"
         sodipodi:rx="13.327892"
         sodipodi:ry="13.022045"
         sodipodi:start="4.712389"
         sodipodi:end="4.6921955"
         sodipodi:open="true"
         sodipodi:arc-type="arc"
         d="m 129.95512,108.95037 a 13.327892,13.022045 0 0 1 13.32773,12.9563 13.327892,13.022045 0 0 1 -13.19316,13.08712 13.327892,13.022045 0 0 1 -13.46093,-12.82417 13.327892,13.022045 0 0 1 13.05725,-13.2166" />
    </g>
  </g>
</svg>
