<svg xmlns="http://www.w3.org/2000/svg" viewBox="0 0 1080 1080">
  <!-- Background with gradient -->
  <defs>
    <linearGradient id="bgGradient" x1="0%" y1="0%" x2="100%" y2="100%">
      <stop offset="0%" style="stop-color:#f3e8ff;stop-opacity:1" />
      <stop offset="100%" style="stop-color:#e0f2fe;stop-opacity:1" />
    </linearGradient>
  </defs>
  
  <!-- Background -->
  <rect width="1080" height="1080" fill="url(#bgGradient)" />
  
  <!-- Logo -->
  <g transform="translate(390,240) scale(1.8)">
    <g transform="translate(3.3937378,-2.9513774)">
      <path style="fill:#916f6f;stroke:#000000;stroke-width:0.240799px" d="m 186.02665,214.41177 c -0.6473,-1.38039 -57.11486,-97.03295 -57.11486,-97.03295" />
      <path style="fill:#de87cd" d="m 124.91213,129.67987 c 0,0 -99.930879,-29.0738 -117.9066682,-13.68989 -4.7639298,4.56643 11.1116632,13.10254 19.9268132,23.79409 9.787402,11.87074 22.550028,13.73946 30.511727,22.59599 9.340043,10.38979 16.854238,23.1014 24.120002,29.22825 16.585672,13.98587 60.952926,-25.58086 63.003626,-23.39668 0.93324,0.994 -21.98985,26.38055 -32.65033,41.53564 -17.690553,25.14914 -12.052414,33.75789 9.19003,45.54453 18.41695,10.21888 51.15788,-2.89972 59.81143,-20.3735 4.59844,-9.28544 -8.85521,-29.77325 -8.85521,-29.77325" />
      <path style="fill:#37c8ab" d="m 140.61606,120.79857 c 0,0 23.22854,-98.652745 41.32862,-108.639375 6.87673,-3.7942009 13.22778,12.57948 17.41155,29.749287 3.13973,12.885242 -0.68393,26.698277 2.6072,39.235924 3.13509,11.943181 5.39564,26.131544 9.60557,34.918844 9.90706,20.67874 -46.39347,40.73378 -46.39347,40.73378 0,0 34.46532,-5.82285 51.77412,-6.86088 22.48158,-1.34824 28.81837,-2.76661 34.34583,27.36745 3.64826,19.88925 -20.54376,43.27205 -40.69161,44.99134 -11.58488,0.98858 -25.4329,-25.44458 -25.4329,-25.44458" />
      <path style="fill:none;stroke:#916f6f;stroke-width:2.408;stroke-linecap:round" d="M 118.02155,116.9044 66.030886,89.285014" />
      <path style="fill:none;stroke:#916f6f;stroke-width:2.408;stroke-linecap:round" d="M 129.68602,108.95303 119.70286,58.862544" />
      <path style="fill:#916f6f;stroke:#000000;stroke-width:0.240799px" d="m 176.40313,207.11128 9.62352,7.30049 -2.86508,-13.64822" />
      <path style="fill:#916f6f" d="m 135.80237,130.15431 -10.89024,-0.47444 47.15142,75.46518 13.9631,9.26672 c -14.24817,-24.96933 -13.45029,-24.59059 -50.22428,-84.25746" />
      <path style="fill:#6c5353" d="m 140.61606,120.79857 -4.81369,9.35574 50.22428,84.25746 -0.85568,-17.56141" />
      <path style="fill:#916f6f" d="m 129.95512,108.95037 a 13.327892,13.022045 0 0 1 13.32773,12.9563 13.327892,13.022045 0 0 1 -13.19316,13.08712 13.327892,13.022045 0 0 1 -13.46093,-12.82417 13.327892,13.022045 0 0 1 13.05725,-13.2166" />
    </g>
  </g>
  
  <!-- Text -->
  <text x="540" y="650" text-anchor="middle" style="font-family: sans-serif; font-size: 72px; font-weight: bold; fill: #4a3e3e;">
    Fjärilspartiet
  </text>
  <text x="540" y="740" text-anchor="middle" style="font-family: sans-serif; font-size: 36px; fill: #6b7280;">
    Ett parti för systemisk samhällsförnyelse
  </text>
  
  <!-- Website -->
  <text x="540" y="840" text-anchor="middle" style="font-family: sans-serif; font-size: 32px; fill: #4a3e3e;">
    fjarilspartiet.se
  </text>
</svg>